<svg width="411" height="141" viewBox="0 0 411 141" fill="none" xmlns="http://www.w3.org/2000/svg">
<path d="M50.584 39.704C50.584 36.952 51.144 34.552 52.264 32.504C53.384 30.424 54.936 28.824 56.92 27.704C58.904 26.552 61.176 25.976 63.736 25.976C67.032 25.976 69.752 26.808 71.896 28.472C74.072 30.104 75.528 32.408 76.264 35.384H69.016C68.632 34.232 67.976 33.336 67.048 32.696C66.152 32.024 65.032 31.688 63.688 31.688C61.768 31.688 60.248 32.392 59.128 33.8C58.008 35.176 57.448 37.144 57.448 39.704C57.448 42.232 58.008 44.2 59.128 45.608C60.248 46.984 61.768 47.672 63.688 47.672C66.408 47.672 68.184 46.456 69.016 44.024H76.264C75.528 46.904 74.072 49.192 71.896 50.888C69.72 52.584 67 53.432 63.736 53.432C61.176 53.432 58.904 52.872 56.92 51.752C54.936 50.6 53.384 49 52.264 46.952C51.144 44.872 50.584 42.456 50.584 39.704ZM92.995 53.432C90.435 53.432 88.131 52.872 86.083 51.752C84.035 50.6 82.419 48.984 81.235 46.904C80.083 44.824 79.507 42.424 79.507 39.704C79.507 36.984 80.099 34.584 81.283 32.504C82.499 30.424 84.147 28.824 86.227 27.704C88.307 26.552 90.627 25.976 93.187 25.976C95.747 25.976 98.067 26.552 100.147 27.704C102.227 28.824 103.859 30.424 105.043 32.504C106.259 34.584 106.867 36.984 106.867 39.704C106.867 42.424 106.243 44.824 104.995 46.904C103.779 48.984 102.115 50.6 100.003 51.752C97.923 52.872 95.587 53.432 92.995 53.432ZM92.995 47.576C94.211 47.576 95.347 47.288 96.403 46.712C97.491 46.104 98.355 45.208 98.995 44.024C99.635 42.84 99.955 41.4 99.955 39.704C99.955 37.176 99.283 35.24 97.939 33.896C96.627 32.52 95.011 31.832 93.091 31.832C91.171 31.832 89.555 32.52 88.243 33.896C86.963 35.24 86.323 37.176 86.323 39.704C86.323 42.232 86.947 44.184 88.195 45.56C89.475 46.904 91.075 47.576 92.995 47.576ZM144.82 26.024C148.084 26.024 150.708 27.032 152.692 29.048C154.708 31.032 155.716 33.816 155.716 37.4V53H148.996V38.312C148.996 36.232 148.468 34.648 147.412 33.56C146.356 32.44 144.916 31.88 143.092 31.88C141.268 31.88 139.812 32.44 138.724 33.56C137.668 34.648 137.14 36.232 137.14 38.312V53H130.42V38.312C130.42 36.232 129.892 34.648 128.836 33.56C127.78 32.44 126.34 31.88 124.516 31.88C122.66 31.88 121.188 32.44 120.1 33.56C119.044 34.648 118.516 36.232 118.516 38.312V53H111.796V26.408H118.516V29.624C119.38 28.504 120.484 27.624 121.828 26.984C123.204 26.344 124.708 26.024 126.34 26.024C128.42 26.024 130.276 26.472 131.908 27.368C133.54 28.232 134.804 29.48 135.7 31.112C136.564 29.576 137.812 28.344 139.444 27.416C141.108 26.488 142.9 26.024 144.82 26.024ZM168.813 30.248C169.677 29.032 170.861 28.024 172.365 27.224C173.901 26.392 175.645 25.976 177.597 25.976C179.869 25.976 181.917 26.536 183.741 27.656C185.597 28.776 187.053 30.376 188.109 32.456C189.197 34.504 189.741 36.888 189.741 39.608C189.741 42.328 189.197 44.744 188.109 46.856C187.053 48.936 185.597 50.552 183.741 51.704C181.917 52.856 179.869 53.432 177.597 53.432C175.645 53.432 173.917 53.032 172.413 52.232C170.941 51.432 169.741 50.424 168.813 49.208V65.672H162.093V26.408H168.813V30.248ZM182.877 39.608C182.877 38.008 182.541 36.632 181.869 35.48C181.229 34.296 180.365 33.4 179.277 32.792C178.221 32.184 177.069 31.88 175.821 31.88C174.605 31.88 173.453 32.2 172.365 32.84C171.309 33.448 170.445 34.344 169.773 35.528C169.133 36.712 168.813 38.104 168.813 39.704C168.813 41.304 169.133 42.696 169.773 43.88C170.445 45.064 171.309 45.976 172.365 46.616C173.453 47.224 174.605 47.528 175.821 47.528C177.069 47.528 178.221 47.208 179.277 46.568C180.365 45.928 181.229 45.016 181.869 43.832C182.541 42.648 182.877 41.24 182.877 39.608ZM192.896 39.608C192.896 36.92 193.424 34.536 194.48 32.456C195.569 30.376 197.025 28.776 198.849 27.656C200.705 26.536 202.769 25.976 205.041 25.976C207.025 25.976 208.753 26.376 210.225 27.176C211.729 27.976 212.929 28.984 213.825 30.2V26.408H220.593V53H213.825V49.112C212.961 50.36 211.761 51.4 210.225 52.232C208.721 53.032 206.977 53.432 204.993 53.432C202.753 53.432 200.705 52.856 198.849 51.704C197.025 50.552 195.569 48.936 194.48 46.856C193.424 44.744 192.896 42.328 192.896 39.608ZM213.825 39.704C213.825 38.072 213.505 36.68 212.865 35.528C212.225 34.344 211.361 33.448 210.273 32.84C209.185 32.2 208.017 31.88 206.769 31.88C205.521 31.88 204.369 32.184 203.312 32.792C202.257 33.4 201.393 34.296 200.721 35.48C200.081 36.632 199.761 38.008 199.761 39.608C199.761 41.208 200.081 42.616 200.721 43.832C201.393 45.016 202.257 45.928 203.312 46.568C204.401 47.208 205.553 47.528 206.769 47.528C208.017 47.528 209.185 47.224 210.273 46.616C211.361 45.976 212.225 45.08 212.865 43.928C213.505 42.744 213.825 41.336 213.825 39.704ZM241.892 26.024C245.06 26.024 247.62 27.032 249.572 29.048C251.524 31.032 252.5 33.816 252.5 37.4V53H245.78V38.312C245.78 36.2 245.252 34.584 244.196 33.464C243.14 32.312 241.7 31.736 239.876 31.736C238.02 31.736 236.548 32.312 235.46 33.464C234.404 34.584 233.876 36.2 233.876 38.312V53H227.156V26.408H233.876V29.72C234.772 28.568 235.908 27.672 237.284 27.032C238.692 26.36 240.228 26.024 241.892 26.024ZM284.33 26.408L267.866 65.576H260.714L266.474 52.328L255.818 26.408H263.354L270.218 44.984L277.178 26.408H284.33ZM314.366 26.024C316.382 26.024 318.174 26.472 319.742 27.368C321.31 28.232 322.526 29.528 323.39 31.256C324.286 32.952 324.734 35 324.734 37.4V53H318.014V38.312C318.014 36.2 317.486 34.584 316.43 33.464C315.374 32.312 313.934 31.736 312.11 31.736C310.254 31.736 308.782 32.312 307.694 33.464C306.638 34.584 306.11 36.2 306.11 38.312V53H299.39V17.48H306.11V29.72C306.974 28.568 308.126 27.672 309.566 27.032C311.006 26.36 312.606 26.024 314.366 26.024ZM355.845 39.128C355.845 40.088 355.781 40.952 355.653 41.72H336.213C336.373 43.64 337.045 45.144 338.229 46.232C339.413 47.32 340.869 47.864 342.597 47.864C345.093 47.864 346.869 46.792 347.925 44.648H355.173C354.405 47.208 352.933 49.32 350.757 50.984C348.581 52.616 345.909 53.432 342.741 53.432C340.181 53.432 337.877 52.872 335.829 51.752C333.813 50.6 332.229 48.984 331.077 46.904C329.957 44.824 329.396 42.424 329.396 39.704C329.396 36.952 329.957 34.536 331.077 32.456C332.197 30.376 333.765 28.776 335.781 27.656C337.797 26.536 340.117 25.976 342.741 25.976C345.269 25.976 347.525 26.52 349.509 27.608C351.525 28.696 353.077 30.248 354.165 32.264C355.285 34.248 355.845 36.536 355.845 39.128ZM348.885 37.208C348.853 35.48 348.229 34.104 347.013 33.08C345.797 32.024 344.309 31.496 342.549 31.496C340.885 31.496 339.477 32.008 338.325 33.032C337.205 34.024 336.517 35.416 336.261 37.208H348.885ZM367.47 30.536C368.334 29.128 369.454 28.024 370.83 27.224C372.238 26.424 373.838 26.024 375.63 26.024V33.08H373.854C371.742 33.08 370.142 33.576 369.054 34.568C367.998 35.56 367.47 37.288 367.47 39.752V53H360.75V26.408H367.47V30.536ZM391.964 53.432C389.404 53.432 387.1 52.872 385.052 51.752C383.004 50.6 381.388 48.984 380.204 46.904C379.052 44.824 378.476 42.424 378.476 39.704C378.476 36.984 379.068 34.584 380.252 32.504C381.468 30.424 383.116 28.824 385.196 27.704C387.276 26.552 389.596 25.976 392.156 25.976C394.716 25.976 397.036 26.552 399.116 27.704C401.196 28.824 402.828 30.424 404.012 32.504C405.228 34.584 405.836 36.984 405.836 39.704C405.836 42.424 405.212 44.824 403.964 46.904C402.748 48.984 401.084 50.6 398.972 51.752C396.892 52.872 394.556 53.432 391.964 53.432ZM391.964 47.576C393.18 47.576 394.316 47.288 395.372 46.712C396.46 46.104 397.324 45.208 397.964 44.024C398.604 42.84 398.924 41.4 398.924 39.704C398.924 37.176 398.252 35.24 396.908 33.896C395.596 32.52 393.98 31.832 392.06 31.832C390.14 31.832 388.524 32.52 387.212 33.896C385.932 35.24 385.292 37.176 385.292 39.704C385.292 42.232 385.916 44.184 387.164 45.56C388.444 46.904 390.044 47.576 391.964 47.576Z" fill="white"/>
<path d="M50.584 111.608C50.584 108.92 51.112 106.536 52.168 104.456C53.256 102.376 54.712 100.776 56.536 99.656C58.392 98.536 60.456 97.976 62.728 97.976C64.712 97.976 66.44 98.376 67.912 99.176C69.416 99.976 70.616 100.984 71.512 102.2V98.408H78.28V125H71.512V121.112C70.648 122.36 69.448 123.4 67.912 124.232C66.408 125.032 64.664 125.432 62.68 125.432C60.44 125.432 58.392 124.856 56.536 123.704C54.712 122.552 53.256 120.936 52.168 118.856C51.112 116.744 50.584 114.328 50.584 111.608ZM71.512 111.704C71.512 110.072 71.192 108.68 70.552 107.528C69.912 106.344 69.048 105.448 67.96 104.84C66.872 104.2 65.704 103.88 64.456 103.88C63.208 103.88 62.056 104.184 61 104.792C59.944 105.4 59.08 106.296 58.408 107.48C57.768 108.632 57.448 110.008 57.448 111.608C57.448 113.208 57.768 114.616 58.408 115.832C59.08 117.016 59.944 117.928 61 118.568C62.088 119.208 63.24 119.528 64.456 119.528C65.704 119.528 66.872 119.224 67.96 118.616C69.048 117.976 69.912 117.08 70.552 115.928C71.192 114.744 71.512 113.336 71.512 111.704ZM99.5793 98.024C102.747 98.024 105.307 99.032 107.259 101.048C109.211 103.032 110.187 105.816 110.187 109.4V125H103.467V110.312C103.467 108.2 102.939 106.584 101.883 105.464C100.827 104.312 99.3873 103.736 97.5633 103.736C95.7073 103.736 94.2353 104.312 93.1473 105.464C92.0913 106.584 91.5633 108.2 91.5633 110.312V125H84.8433V98.408H91.5633V101.72C92.4593 100.568 93.5953 99.672 94.9713 99.032C96.3793 98.36 97.9153 98.024 99.5793 98.024ZM119.986 95.24C118.802 95.24 117.81 94.872 117.01 94.136C116.242 93.368 115.858 92.424 115.858 91.304C115.858 90.184 116.242 89.256 117.01 88.52C117.81 87.752 118.802 87.368 119.986 87.368C121.17 87.368 122.146 87.752 122.914 88.52C123.714 89.256 124.114 90.184 124.114 91.304C124.114 92.424 123.714 93.368 122.914 94.136C122.146 94.872 121.17 95.24 119.986 95.24ZM123.298 98.408V125H116.578V98.408H123.298ZM162.961 98.024C166.225 98.024 168.849 99.032 170.833 101.048C172.849 103.032 173.857 105.816 173.857 109.4V125H167.137V110.312C167.137 108.232 166.609 106.648 165.553 105.56C164.497 104.44 163.057 103.88 161.233 103.88C159.409 103.88 157.953 104.44 156.865 105.56C155.809 106.648 155.281 108.232 155.281 110.312V125H148.561V110.312C148.561 108.232 148.033 106.648 146.977 105.56C145.921 104.44 144.481 103.88 142.657 103.88C140.801 103.88 139.329 104.44 138.241 105.56C137.185 106.648 136.657 108.232 136.657 110.312V125H129.937V98.408H136.657V101.624C137.521 100.504 138.625 99.624 139.969 98.984C141.345 98.344 142.849 98.024 144.481 98.024C146.561 98.024 148.417 98.472 150.049 99.368C151.681 100.232 152.945 101.48 153.841 103.112C154.705 101.576 155.953 100.344 157.585 99.416C159.249 98.488 161.041 98.024 162.961 98.024ZM204.954 111.128C204.954 112.088 204.89 112.952 204.762 113.72H185.322C185.482 115.64 186.154 117.144 187.338 118.232C188.522 119.32 189.978 119.864 191.706 119.864C194.202 119.864 195.978 118.792 197.034 116.648H204.282C203.514 119.208 202.042 121.32 199.866 122.984C197.69 124.616 195.018 125.432 191.85 125.432C189.29 125.432 186.986 124.872 184.938 123.752C182.922 122.6 181.338 120.984 180.186 118.904C179.066 116.824 178.506 114.424 178.506 111.704C178.506 108.952 179.066 106.536 180.186 104.456C181.306 102.376 182.874 100.776 184.89 99.656C186.906 98.536 189.226 97.976 191.85 97.976C194.378 97.976 196.634 98.52 198.618 99.608C200.634 100.696 202.186 102.248 203.274 104.264C204.394 106.248 204.954 108.536 204.954 111.128ZM197.994 109.208C197.962 107.48 197.338 106.104 196.122 105.08C194.906 104.024 193.418 103.496 191.658 103.496C189.994 103.496 188.586 104.008 187.434 105.032C186.314 106.024 185.626 107.416 185.37 109.208H197.994ZM220.035 125.432C217.859 125.432 215.907 125.048 214.179 124.28C212.451 123.48 211.075 122.408 210.051 121.064C209.059 119.72 208.515 118.232 208.419 116.6H215.187C215.315 117.624 215.811 118.472 216.675 119.144C217.571 119.816 218.675 120.152 219.987 120.152C221.267 120.152 222.259 119.896 222.963 119.384C223.699 118.872 224.067 118.216 224.067 117.416C224.067 116.552 223.619 115.912 222.723 115.496C221.859 115.048 220.467 114.568 218.547 114.056C216.563 113.576 214.931 113.08 213.651 112.568C212.403 112.056 211.315 111.272 210.387 110.216C209.491 109.16 209.043 107.736 209.043 105.944C209.043 104.472 209.459 103.128 210.291 101.912C211.155 100.696 212.371 99.736 213.939 99.032C215.539 98.328 217.411 97.976 219.555 97.976C222.723 97.976 225.251 98.776 227.139 100.376C229.027 101.944 230.067 104.072 230.259 106.76H223.827C223.731 105.704 223.283 104.872 222.483 104.264C221.715 103.624 220.675 103.304 219.363 103.304C218.147 103.304 217.203 103.528 216.531 103.976C215.891 104.424 215.571 105.048 215.571 105.848C215.571 106.744 216.019 107.432 216.915 107.912C217.811 108.36 219.203 108.824 221.091 109.304C223.011 109.784 224.595 110.28 225.843 110.792C227.091 111.304 228.163 112.104 229.059 113.192C229.987 114.248 230.467 115.656 230.499 117.416C230.499 118.952 230.067 120.328 229.203 121.544C228.371 122.76 227.155 123.72 225.555 124.424C223.987 125.096 222.147 125.432 220.035 125.432Z" fill="#E0365F"/>
<path d="M0 0H17V125H0V0Z" fill="#E0365F"/>
</svg>
