<svg width="267" height="30" viewBox="0 0 267 30" fill="none" xmlns="http://www.w3.org/2000/svg">
<path d="M29.66 17.46C29.66 16.3133 29.8933 15.3133 30.36 14.46C30.8267 13.5933 31.4733 12.9267 32.3 12.46C33.1267 11.98 34.0733 11.74 35.14 11.74C36.5133 11.74 37.6467 12.0867 38.54 12.78C39.4467 13.46 40.0533 14.42 40.36 15.66H37.34C37.18 15.18 36.9067 14.8067 36.52 14.54C36.1467 14.26 35.68 14.12 35.12 14.12C34.32 14.12 33.6867 14.4133 33.22 15C32.7533 15.5733 32.52 16.3933 32.52 17.46C32.52 18.5133 32.7533 19.3333 33.22 19.92C33.6867 20.4933 34.32 20.78 35.12 20.78C36.2533 20.78 36.9933 20.2733 37.34 19.26H40.36C40.0533 20.46 39.4467 21.4133 38.54 22.12C37.6333 22.8267 36.5 23.18 35.14 23.18C34.0733 23.18 33.1267 22.9467 32.3 22.48C31.4733 22 30.8267 21.3333 30.36 20.48C29.8933 19.6133 29.66 18.6067 29.66 17.46ZM47.3313 23.18C46.2646 23.18 45.3046 22.9467 44.4513 22.48C43.5979 22 42.9246 21.3267 42.4313 20.46C41.9513 19.5933 41.7113 18.5933 41.7113 17.46C41.7113 16.3267 41.9579 15.3267 42.4513 14.46C42.9579 13.5933 43.6446 12.9267 44.5113 12.46C45.3779 11.98 46.3446 11.74 47.4113 11.74C48.4779 11.74 49.4446 11.98 50.3113 12.46C51.1779 12.9267 51.8579 13.5933 52.3513 14.46C52.8579 15.3267 53.1113 16.3267 53.1113 17.46C53.1113 18.5933 52.8513 19.5933 52.3312 20.46C51.8246 21.3267 51.1313 22 50.2513 22.48C49.3846 22.9467 48.4113 23.18 47.3313 23.18ZM47.3313 20.74C47.8379 20.74 48.3113 20.62 48.7513 20.38C49.2046 20.1267 49.5646 19.7533 49.8313 19.26C50.0979 18.7667 50.2313 18.1667 50.2313 17.46C50.2313 16.4067 49.9513 15.6 49.3913 15.04C48.8446 14.4667 48.1713 14.18 47.3713 14.18C46.5713 14.18 45.8979 14.4667 45.3513 15.04C44.8179 15.6 44.5513 16.4067 44.5513 17.46C44.5513 18.5133 44.8113 19.3267 45.3313 19.9C45.8646 20.46 46.5313 20.74 47.3313 20.74ZM68.9252 11.76C70.2852 11.76 71.3785 12.18 72.2052 13.02C73.0452 13.8467 73.4652 15.0067 73.4652 16.5V23H70.6652V16.88C70.6652 16.0133 70.4452 15.3533 70.0052 14.9C69.5652 14.4333 68.9652 14.2 68.2052 14.2C67.4452 14.2 66.8385 14.4333 66.3852 14.9C65.9452 15.3533 65.7252 16.0133 65.7252 16.88V23H62.9252V16.88C62.9252 16.0133 62.7052 15.3533 62.2652 14.9C61.8252 14.4333 61.2252 14.2 60.4652 14.2C59.6918 14.2 59.0785 14.4333 58.6252 14.9C58.1852 15.3533 57.9652 16.0133 57.9652 16.88V23H55.1652V11.92H57.9652V13.26C58.3252 12.7933 58.7852 12.4267 59.3452 12.16C59.9185 11.8933 60.5452 11.76 61.2252 11.76C62.0918 11.76 62.8652 11.9467 63.5452 12.32C64.2252 12.68 64.7518 13.2 65.1252 13.88C65.4852 13.24 66.0052 12.7267 66.6852 12.34C67.3785 11.9533 68.1252 11.76 68.9252 11.76ZM78.9222 13.52C79.2822 13.0133 79.7755 12.5933 80.4022 12.26C81.0422 11.9133 81.7689 11.74 82.5822 11.74C83.5289 11.74 84.3822 11.9733 85.1422 12.44C85.9155 12.9067 86.5222 13.5733 86.9622 14.44C87.4155 15.2933 87.6422 16.2867 87.6422 17.42C87.6422 18.5533 87.4155 19.56 86.9622 20.44C86.5222 21.3067 85.9155 21.98 85.1422 22.46C84.3822 22.94 83.5289 23.18 82.5822 23.18C81.7689 23.18 81.0489 23.0133 80.4222 22.68C79.8089 22.3467 79.3089 21.9267 78.9222 21.42V28.28H76.1222V11.92H78.9222V13.52ZM84.7822 17.42C84.7822 16.7533 84.6422 16.18 84.3622 15.7C84.0955 15.2067 83.7355 14.8333 83.2822 14.58C82.8422 14.3267 82.3622 14.2 81.8422 14.2C81.3355 14.2 80.8555 14.3333 80.4022 14.6C79.9622 14.8533 79.6022 15.2267 79.3222 15.72C79.0555 16.2133 78.9222 16.7933 78.9222 17.46C78.9222 18.1267 79.0555 18.7067 79.3222 19.2C79.6022 19.6933 79.9622 20.0733 80.4022 20.34C80.8555 20.5933 81.3355 20.72 81.8422 20.72C82.3622 20.72 82.8422 20.5867 83.2822 20.32C83.7355 20.0533 84.0955 19.6733 84.3622 19.18C84.6422 18.6867 84.7822 18.1 84.7822 17.42ZM88.9569 17.42C88.9569 16.3 89.1769 15.3067 89.6169 14.44C90.0702 13.5733 90.6769 12.9067 91.4369 12.44C92.2102 11.9733 93.0702 11.74 94.0169 11.74C94.8435 11.74 95.5635 11.9067 96.1769 12.24C96.8035 12.5733 97.3035 12.9933 97.6769 13.5V11.92H100.497V23H97.6769V21.38C97.3169 21.9 96.8169 22.3333 96.1769 22.68C95.5502 23.0133 94.8235 23.18 93.9969 23.18C93.0635 23.18 92.2102 22.94 91.4369 22.46C90.6769 21.98 90.0702 21.3067 89.6169 20.44C89.1769 19.56 88.9569 18.5533 88.9569 17.42ZM97.6769 17.46C97.6769 16.78 97.5435 16.2 97.2769 15.72C97.0102 15.2267 96.6502 14.8533 96.1969 14.6C95.7435 14.3333 95.2569 14.2 94.7369 14.2C94.2169 14.2 93.7369 14.3267 93.2969 14.58C92.8569 14.8333 92.4969 15.2067 92.2169 15.7C91.9502 16.18 91.8169 16.7533 91.8169 17.42C91.8169 18.0867 91.9502 18.6733 92.2169 19.18C92.4969 19.6733 92.8569 20.0533 93.2969 20.32C93.7502 20.5867 94.2302 20.72 94.7369 20.72C95.2569 20.72 95.7435 20.5933 96.1969 20.34C96.6502 20.0733 97.0102 19.7 97.2769 19.22C97.5435 18.7267 97.6769 18.14 97.6769 17.46ZM109.372 11.76C110.692 11.76 111.758 12.18 112.572 13.02C113.385 13.8467 113.792 15.0067 113.792 16.5V23H110.992V16.88C110.992 16 110.772 15.3267 110.332 14.86C109.892 14.38 109.292 14.14 108.532 14.14C107.758 14.14 107.145 14.38 106.692 14.86C106.252 15.3267 106.032 16 106.032 16.88V23H103.232V11.92H106.032V13.3C106.405 12.82 106.878 12.4467 107.452 12.18C108.038 11.9 108.678 11.76 109.372 11.76ZM127.054 11.92L120.194 28.24H117.214L119.614 22.72L115.174 11.92H118.314L121.174 19.66L124.074 11.92H127.054ZM139.569 11.76C140.409 11.76 141.156 11.9467 141.809 12.32C142.463 12.68 142.969 13.22 143.329 13.94C143.703 14.6467 143.889 15.5 143.889 16.5V23H141.089V16.88C141.089 16 140.869 15.3267 140.429 14.86C139.989 14.38 139.389 14.14 138.629 14.14C137.856 14.14 137.243 14.38 136.789 14.86C136.349 15.3267 136.129 16 136.129 16.88V23H133.329V8.2H136.129V13.3C136.489 12.82 136.969 12.4467 137.569 12.18C138.169 11.9 138.836 11.76 139.569 11.76ZM156.852 17.22C156.852 17.62 156.825 17.98 156.772 18.3H148.672C148.739 19.1 149.019 19.7267 149.512 20.18C150.005 20.6333 150.612 20.86 151.332 20.86C152.372 20.86 153.112 20.4133 153.552 19.52H156.572C156.252 20.5867 155.639 21.4667 154.732 22.16C153.825 22.84 152.712 23.18 151.392 23.18C150.325 23.18 149.365 22.9467 148.512 22.48C147.672 22 147.012 21.3267 146.532 20.46C146.065 19.5933 145.832 18.5933 145.832 17.46C145.832 16.3133 146.065 15.3067 146.532 14.44C146.999 13.5733 147.652 12.9067 148.492 12.44C149.332 11.9733 150.299 11.74 151.392 11.74C152.445 11.74 153.385 11.9667 154.212 12.42C155.052 12.8733 155.699 13.52 156.152 14.36C156.619 15.1867 156.852 16.14 156.852 17.22ZM153.952 16.42C153.939 15.7 153.679 15.1267 153.172 14.7C152.665 14.26 152.045 14.04 151.312 14.04C150.619 14.04 150.032 14.2533 149.552 14.68C149.085 15.0933 148.799 15.6733 148.692 16.42H153.952ZM161.696 13.64C162.056 13.0533 162.522 12.5933 163.096 12.26C163.682 11.9267 164.349 11.76 165.096 11.76V14.7H164.356C163.476 14.7 162.809 14.9067 162.356 15.32C161.916 15.7333 161.696 16.4533 161.696 17.48V23H158.896V11.92H161.696V13.64ZM171.902 23.18C170.835 23.18 169.875 22.9467 169.022 22.48C168.168 22 167.495 21.3267 167.002 20.46C166.522 19.5933 166.282 18.5933 166.282 17.46C166.282 16.3267 166.528 15.3267 167.022 14.46C167.528 13.5933 168.215 12.9267 169.082 12.46C169.948 11.98 170.915 11.74 171.982 11.74C173.048 11.74 174.015 11.98 174.882 12.46C175.748 12.9267 176.428 13.5933 176.922 14.46C177.428 15.3267 177.682 16.3267 177.682 17.46C177.682 18.5933 177.422 19.5933 176.902 20.46C176.395 21.3267 175.702 22 174.822 22.48C173.955 22.9467 172.982 23.18 171.902 23.18ZM171.902 20.74C172.408 20.74 172.882 20.62 173.322 20.38C173.775 20.1267 174.135 19.7533 174.402 19.26C174.668 18.7667 174.802 18.1667 174.802 17.46C174.802 16.4067 174.522 15.6 173.962 15.04C173.415 14.4667 172.742 14.18 171.942 14.18C171.142 14.18 170.468 14.4667 169.922 15.04C169.388 15.6 169.122 16.4067 169.122 17.46C169.122 18.5133 169.382 19.3267 169.902 19.9C170.435 20.46 171.102 20.74 171.902 20.74Z" fill="#E1E1E6"/>
<path d="M183.781 17.42C183.781 16.3 184.001 15.3067 184.441 14.44C184.894 13.5733 185.501 12.9067 186.261 12.44C187.034 11.9733 187.894 11.74 188.841 11.74C189.668 11.74 190.388 11.9067 191.001 12.24C191.628 12.5733 192.128 12.9933 192.501 13.5V11.92H195.321V23H192.501V21.38C192.141 21.9 191.641 22.3333 191.001 22.68C190.374 23.0133 189.648 23.18 188.821 23.18C187.888 23.18 187.034 22.94 186.261 22.46C185.501 21.98 184.894 21.3067 184.441 20.44C184.001 19.56 183.781 18.5533 183.781 17.42ZM192.501 17.46C192.501 16.78 192.368 16.2 192.101 15.72C191.834 15.2267 191.474 14.8533 191.021 14.6C190.568 14.3333 190.081 14.2 189.561 14.2C189.041 14.2 188.561 14.3267 188.121 14.58C187.681 14.8333 187.321 15.2067 187.041 15.7C186.774 16.18 186.641 16.7533 186.641 17.42C186.641 18.0867 186.774 18.6733 187.041 19.18C187.321 19.6733 187.681 20.0533 188.121 20.32C188.574 20.5867 189.054 20.72 189.561 20.72C190.081 20.72 190.568 20.5933 191.021 20.34C191.474 20.0733 191.834 19.7 192.101 19.22C192.368 18.7267 192.501 18.14 192.501 17.46ZM204.196 11.76C205.516 11.76 206.582 12.18 207.396 13.02C208.209 13.8467 208.616 15.0067 208.616 16.5V23H205.816V16.88C205.816 16 205.596 15.3267 205.156 14.86C204.716 14.38 204.116 14.14 203.356 14.14C202.582 14.14 201.969 14.38 201.516 14.86C201.076 15.3267 200.856 16 200.856 16.88V23H198.056V11.92H200.856V13.3C201.229 12.82 201.702 12.4467 202.276 12.18C202.862 11.9 203.502 11.76 204.196 11.76ZM212.698 10.6C212.205 10.6 211.792 10.4467 211.458 10.14C211.138 9.82 210.978 9.42667 210.978 8.96C210.978 8.49333 211.138 8.10667 211.458 7.8C211.792 7.48 212.205 7.32 212.698 7.32C213.192 7.32 213.598 7.48 213.918 7.8C214.252 8.10667 214.418 8.49333 214.418 8.96C214.418 9.42667 214.252 9.82 213.918 10.14C213.598 10.4467 213.192 10.6 212.698 10.6ZM214.078 11.92V23H211.278V11.92H214.078ZM230.605 11.76C231.965 11.76 233.058 12.18 233.885 13.02C234.725 13.8467 235.145 15.0067 235.145 16.5V23H232.345V16.88C232.345 16.0133 232.125 15.3533 231.685 14.9C231.245 14.4333 230.645 14.2 229.885 14.2C229.125 14.2 228.518 14.4333 228.065 14.9C227.625 15.3533 227.405 16.0133 227.405 16.88V23H224.605V16.88C224.605 16.0133 224.385 15.3533 223.945 14.9C223.505 14.4333 222.905 14.2 222.145 14.2C221.372 14.2 220.758 14.4333 220.305 14.9C219.865 15.3533 219.645 16.0133 219.645 16.88V23H216.845V11.92H219.645V13.26C220.005 12.7933 220.465 12.4267 221.025 12.16C221.598 11.8933 222.225 11.76 222.905 11.76C223.772 11.76 224.545 11.9467 225.225 12.32C225.905 12.68 226.432 13.2 226.805 13.88C227.165 13.24 227.685 12.7267 228.365 12.34C229.058 11.9533 229.805 11.76 230.605 11.76ZM248.102 17.22C248.102 17.62 248.075 17.98 248.022 18.3H239.922C239.989 19.1 240.269 19.7267 240.762 20.18C241.255 20.6333 241.862 20.86 242.582 20.86C243.622 20.86 244.362 20.4133 244.802 19.52H247.822C247.502 20.5867 246.889 21.4667 245.982 22.16C245.075 22.84 243.962 23.18 242.642 23.18C241.575 23.18 240.615 22.9467 239.762 22.48C238.922 22 238.262 21.3267 237.782 20.46C237.315 19.5933 237.082 18.5933 237.082 17.46C237.082 16.3133 237.315 15.3067 237.782 14.44C238.249 13.5733 238.902 12.9067 239.742 12.44C240.582 11.9733 241.549 11.74 242.642 11.74C243.695 11.74 244.635 11.9667 245.462 12.42C246.302 12.8733 246.949 13.52 247.402 14.36C247.869 15.1867 248.102 16.14 248.102 17.22ZM245.202 16.42C245.189 15.7 244.929 15.1267 244.422 14.7C243.915 14.26 243.295 14.04 242.562 14.04C241.869 14.04 241.282 14.2533 240.802 14.68C240.335 15.0933 240.049 15.6733 239.942 16.42H245.202ZM254.386 23.18C253.479 23.18 252.666 23.02 251.946 22.7C251.226 22.3667 250.652 21.92 250.226 21.36C249.812 20.8 249.586 20.18 249.546 19.5H252.366C252.419 19.9267 252.626 20.28 252.986 20.56C253.359 20.84 253.819 20.98 254.366 20.98C254.899 20.98 255.312 20.8733 255.606 20.66C255.912 20.4467 256.066 20.1733 256.066 19.84C256.066 19.48 255.879 19.2133 255.506 19.04C255.146 18.8533 254.566 18.6533 253.766 18.44C252.939 18.24 252.259 18.0333 251.726 17.82C251.206 17.6067 250.752 17.28 250.366 16.84C249.992 16.4 249.806 15.8067 249.806 15.06C249.806 14.4467 249.979 13.8867 250.326 13.38C250.686 12.8733 251.192 12.4733 251.846 12.18C252.512 11.8867 253.292 11.74 254.186 11.74C255.506 11.74 256.559 12.0733 257.346 12.74C258.132 13.3933 258.566 14.28 258.646 15.4H255.966C255.926 14.96 255.739 14.6133 255.406 14.36C255.086 14.0933 254.652 13.96 254.106 13.96C253.599 13.96 253.206 14.0533 252.926 14.24C252.659 14.4267 252.526 14.6867 252.526 15.02C252.526 15.3933 252.712 15.68 253.086 15.88C253.459 16.0667 254.039 16.26 254.826 16.46C255.626 16.66 256.286 16.8667 256.806 17.08C257.326 17.2933 257.772 17.6267 258.146 18.08C258.532 18.52 258.732 19.1067 258.746 19.84C258.746 20.48 258.566 21.0533 258.206 21.56C257.859 22.0667 257.352 22.4667 256.686 22.76C256.032 23.04 255.266 23.18 254.386 23.18Z" fill="#E0365F"/>
<path d="M0 0H10V30H0V0Z" fill="#E0365F"/>
</svg>
