<svg width="138" height="30" viewBox="0 0 138 30" fill="none" xmlns="http://www.w3.org/2000/svg">
<path d="M29.66 17.46C29.66 16.3133 29.8933 15.3133 30.36 14.46C30.8267 13.5933 31.4733 12.9267 32.3 12.46C33.1267 11.98 34.0733 11.74 35.14 11.74C36.5133 11.74 37.6467 12.0867 38.54 12.78C39.4467 13.46 40.0533 14.42 40.36 15.66H37.34C37.18 15.18 36.9067 14.8067 36.52 14.54C36.1467 14.26 35.68 14.12 35.12 14.12C34.32 14.12 33.6867 14.4133 33.22 15C32.7533 15.5733 32.52 16.3933 32.52 17.46C32.52 18.5133 32.7533 19.3333 33.22 19.92C33.6867 20.4933 34.32 20.78 35.12 20.78C36.2533 20.78 36.9933 20.2733 37.34 19.26H40.36C40.0533 20.46 39.4467 21.4133 38.54 22.12C37.6333 22.8267 36.5 23.18 35.14 23.18C34.0733 23.18 33.1267 22.9467 32.3 22.48C31.4733 22 30.8267 21.3333 30.36 20.48C29.8933 19.6133 29.66 18.6067 29.66 17.46ZM48.6513 11.76C49.4913 11.76 50.2379 11.9467 50.8913 12.32C51.5446 12.68 52.0513 13.22 52.4113 13.94C52.7846 14.6467 52.9713 15.5 52.9713 16.5V23H50.1713V16.88C50.1713 16 49.9513 15.3267 49.5113 14.86C49.0713 14.38 48.4713 14.14 47.7113 14.14C46.9379 14.14 46.3246 14.38 45.8713 14.86C45.4313 15.3267 45.2113 16 45.2113 16.88V23H42.4113V8.2H45.2113V13.3C45.5713 12.82 46.0513 12.4467 46.6513 12.18C47.2513 11.9 47.9179 11.76 48.6513 11.76Z" fill="#1A1A1F"/>
<path d="M59.6795 17.42C59.6795 16.3 59.8995 15.3067 60.3395 14.44C60.7929 13.5733 61.3995 12.9067 62.1595 12.44C62.9329 11.9733 63.7929 11.74 64.7395 11.74C65.5662 11.74 66.2862 11.9067 66.8995 12.24C67.5262 12.5733 68.0262 12.9933 68.3995 13.5V11.92H71.2195V23H68.3995V21.38C68.0395 21.9 67.5395 22.3333 66.8995 22.68C66.2729 23.0133 65.5462 23.18 64.7195 23.18C63.7862 23.18 62.9329 22.94 62.1595 22.46C61.3995 21.98 60.7929 21.3067 60.3395 20.44C59.8995 19.56 59.6795 18.5533 59.6795 17.42ZM68.3995 17.46C68.3995 16.78 68.2662 16.2 67.9995 15.72C67.7329 15.2267 67.3729 14.8533 66.9195 14.6C66.4662 14.3333 65.9795 14.2 65.4595 14.2C64.9395 14.2 64.4595 14.3267 64.0195 14.58C63.5795 14.8333 63.2195 15.2067 62.9395 15.7C62.6729 16.18 62.5395 16.7533 62.5395 17.42C62.5395 18.0867 62.6729 18.6733 62.9395 19.18C63.2195 19.6733 63.5795 20.0533 64.0195 20.32C64.4729 20.5867 64.9529 20.72 65.4595 20.72C65.9795 20.72 66.4662 20.5933 66.9195 20.34C67.3729 20.0733 67.7329 19.7 67.9995 19.22C68.2662 18.7267 68.3995 18.14 68.3995 17.46ZM80.0942 11.76C81.4142 11.76 82.4809 12.18 83.2942 13.02C84.1076 13.8467 84.5142 15.0067 84.5142 16.5V23H81.7142V16.88C81.7142 16 81.4942 15.3267 81.0542 14.86C80.6142 14.38 80.0142 14.14 79.2542 14.14C78.4809 14.14 77.8676 14.38 77.4142 14.86C76.9742 15.3267 76.7542 16 76.7542 16.88V23H73.9542V11.92H76.7542V13.3C77.1276 12.82 77.6009 12.4467 78.1742 12.18C78.7609 11.9 79.4009 11.76 80.0942 11.76ZM88.5969 10.6C88.1035 10.6 87.6902 10.4467 87.3569 10.14C87.0369 9.82 86.8769 9.42667 86.8769 8.96C86.8769 8.49333 87.0369 8.10667 87.3569 7.8C87.6902 7.48 88.1035 7.32 88.5969 7.32C89.0902 7.32 89.4969 7.48 89.8169 7.8C90.1502 8.10667 90.3169 8.49333 90.3169 8.96C90.3169 9.42667 90.1502 9.82 89.8169 10.14C89.4969 10.4467 89.0902 10.6 88.5969 10.6ZM89.9769 11.92V23H87.1769V11.92H89.9769ZM106.503 11.76C107.863 11.76 108.957 12.18 109.783 13.02C110.623 13.8467 111.043 15.0067 111.043 16.5V23H108.243V16.88C108.243 16.0133 108.023 15.3533 107.583 14.9C107.143 14.4333 106.543 14.2 105.783 14.2C105.023 14.2 104.417 14.4333 103.963 14.9C103.523 15.3533 103.303 16.0133 103.303 16.88V23H100.503V16.88C100.503 16.0133 100.283 15.3533 99.8433 14.9C99.4033 14.4333 98.8033 14.2 98.0433 14.2C97.2699 14.2 96.6566 14.4333 96.2033 14.9C95.7633 15.3533 95.5433 16.0133 95.5433 16.88V23H92.7433V11.92H95.5433V13.26C95.9033 12.7933 96.3633 12.4267 96.9233 12.16C97.4966 11.8933 98.1233 11.76 98.8033 11.76C99.6699 11.76 100.443 11.9467 101.123 12.32C101.803 12.68 102.33 13.2 102.703 13.88C103.063 13.24 103.583 12.7267 104.263 12.34C104.957 11.9533 105.703 11.76 106.503 11.76ZM124 17.22C124 17.62 123.974 17.98 123.92 18.3H115.82C115.887 19.1 116.167 19.7267 116.66 20.18C117.154 20.6333 117.76 20.86 118.48 20.86C119.52 20.86 120.26 20.4133 120.7 19.52H123.72C123.4 20.5867 122.787 21.4667 121.88 22.16C120.974 22.84 119.86 23.18 118.54 23.18C117.474 23.18 116.514 22.9467 115.66 22.48C114.82 22 114.16 21.3267 113.68 20.46C113.214 19.5933 112.98 18.5933 112.98 17.46C112.98 16.3133 113.214 15.3067 113.68 14.44C114.147 13.5733 114.8 12.9067 115.64 12.44C116.48 11.9733 117.447 11.74 118.54 11.74C119.594 11.74 120.534 11.9667 121.36 12.42C122.2 12.8733 122.847 13.52 123.3 14.36C123.767 15.1867 124 16.14 124 17.22ZM121.1 16.42C121.087 15.7 120.827 15.1267 120.32 14.7C119.814 14.26 119.194 14.04 118.46 14.04C117.767 14.04 117.18 14.2533 116.7 14.68C116.234 15.0933 115.947 15.6733 115.84 16.42H121.1ZM130.284 23.18C129.377 23.18 128.564 23.02 127.844 22.7C127.124 22.3667 126.551 21.92 126.124 21.36C125.711 20.8 125.484 20.18 125.444 19.5H128.264C128.317 19.9267 128.524 20.28 128.884 20.56C129.257 20.84 129.717 20.98 130.264 20.98C130.797 20.98 131.211 20.8733 131.504 20.66C131.811 20.4467 131.964 20.1733 131.964 19.84C131.964 19.48 131.777 19.2133 131.404 19.04C131.044 18.8533 130.464 18.6533 129.664 18.44C128.837 18.24 128.157 18.0333 127.624 17.82C127.104 17.6067 126.651 17.28 126.264 16.84C125.891 16.4 125.704 15.8067 125.704 15.06C125.704 14.4467 125.877 13.8867 126.224 13.38C126.584 12.8733 127.091 12.4733 127.744 12.18C128.411 11.8867 129.191 11.74 130.084 11.74C131.404 11.74 132.457 12.0733 133.244 12.74C134.031 13.3933 134.464 14.28 134.544 15.4H131.864C131.824 14.96 131.637 14.6133 131.304 14.36C130.984 14.0933 130.551 13.96 130.004 13.96C129.497 13.96 129.104 14.0533 128.824 14.24C128.557 14.4267 128.424 14.6867 128.424 15.02C128.424 15.3933 128.611 15.68 128.984 15.88C129.357 16.0667 129.937 16.26 130.724 16.46C131.524 16.66 132.184 16.8667 132.704 17.08C133.224 17.2933 133.671 17.6267 134.044 18.08C134.431 18.52 134.631 19.1067 134.644 19.84C134.644 20.48 134.464 21.0533 134.104 21.56C133.757 22.0667 133.251 22.4667 132.584 22.76C131.931 23.04 131.164 23.18 130.284 23.18Z" fill="#E0365F"/>
<path d="M0 0H10V30H0V0Z" fill="#E0365F"/>
</svg>
